<!-- Icon by Marsiholo (https://www.flaticon.com/authors/marsiholo) -->
<svg xmlns="http://www.w3.org/2000/svg" version="1.1" xmlns:xlink="http://www.w3.org/1999/xlink" width="512" height="512" x="0" y="0" viewBox="0 0 512 512" style="enable-background:new 0 0 512 512" xml:space="preserve" class=""><g><path fill="#26a6fe" d="M413.34 323.57a6.11 6.11 0 0 0-6.109 6.12v49.689a6.11 6.11 0 0 0 6.109 6.12c3.391 0 6.12-2.74 6.12-6.12V329.69c0-3.38-2.73-6.12-6.12-6.12zm-.12 71.77a6.12 6.12 0 1 0 0 12.24h.12c3.391 0 6.07-2.74 6.07-6.12s-2.81-6.12-6.19-6.12zM208.71 207.63h-50.53a6.12 6.12 0 0 0-6.12 6.12v50.53c0 3.39 2.74 6.12 6.12 6.12h50.53c3.38 0 6.12-2.73 6.12-6.12v-50.53a6.12 6.12 0 0 0-6.12-6.12zm-6.12 50.53H164.3v-38.29h38.29zm94.45-50.53h-50.4a6.12 6.12 0 0 0-6.12 6.12v50.53c0 3.39 2.74 6.12 6.12 6.12h50.4c3.39 0 6.13-2.73 6.13-6.12v-50.53c0-3.38-2.74-6.12-6.13-6.12zm-6.11 50.53h-38.17v-38.29h38.17zm-82.22 48.49h-50.53a6.12 6.12 0 0 0-6.12 6.119v50.53a6.12 6.12 0 0 0 6.12 6.12h50.53a6.12 6.12 0 0 0 6.12-6.12v-50.53a6.12 6.12 0 0 0-6.12-6.119zm-6.12 50.53H164.3v-38.29h38.29zm94.45-50.53h-50.4a6.12 6.12 0 0 0-6.12 6.119v50.53a6.12 6.12 0 0 0 6.12 6.12h50.4c3.39 0 6.13-2.74 6.13-6.12v-50.53a6.122 6.122 0 0 0-6.13-6.119zm-6.11 50.53h-38.17v-38.29h38.17zm-82.22-149.55h-50.53a6.12 6.12 0 0 0-6.12 6.12v50.53c0 3.39 2.74 6.12 6.12 6.12h50.53c3.38 0 6.12-2.73 6.12-6.12v-50.53a6.12 6.12 0 0 0-6.12-6.12zm-6.12 50.53H164.3v-38.29h38.29zm6.12 48.49h-50.53a6.12 6.12 0 0 0-6.12 6.119v50.53a6.12 6.12 0 0 0 6.12 6.12h50.53a6.12 6.12 0 0 0 6.12-6.12v-50.53a6.12 6.12 0 0 0-6.12-6.119zm-6.12 50.53H164.3v-38.29h38.29zm94.45-149.55h-50.4a6.12 6.12 0 0 0-6.12 6.12v50.53c0 3.39 2.74 6.12 6.12 6.12h50.4c3.39 0 6.13-2.73 6.13-6.12v-50.53c0-3.38-2.74-6.12-6.13-6.12zm-6.11 50.53h-38.17v-38.29h38.17zm6.11 48.49h-50.4a6.12 6.12 0 0 0-6.12 6.119v50.53a6.12 6.12 0 0 0 6.12 6.12h50.4c3.39 0 6.13-2.74 6.13-6.12v-50.53a6.122 6.122 0 0 0-6.13-6.119zm-6.11 50.53h-38.17v-38.29h38.17zm122.29 38.16a6.12 6.12 0 1 0 0 12.24h.12c3.391 0 6.07-2.74 6.07-6.12s-2.81-6.12-6.19-6.12zm.12-71.77a6.11 6.11 0 0 0-6.109 6.12v49.689a6.11 6.11 0 0 0 6.109 6.12c3.391 0 6.12-2.74 6.12-6.12V329.69c0-3.38-2.73-6.12-6.12-6.12zm0 0a6.11 6.11 0 0 0-6.109 6.12v49.689a6.11 6.11 0 0 0 6.109 6.12c3.391 0 6.12-2.74 6.12-6.12V329.69c0-3.38-2.73-6.12-6.12-6.12zm-.12 71.77a6.12 6.12 0 1 0 0 12.24h.12c3.391 0 6.07-2.74 6.07-6.12s-2.81-6.12-6.19-6.12zm0 0a6.12 6.12 0 1 0 0 12.24h.12c3.391 0 6.07-2.74 6.07-6.12s-2.81-6.12-6.19-6.12zm.12-71.77a6.11 6.11 0 0 0-6.109 6.12v49.689a6.11 6.11 0 0 0 6.109 6.12c3.391 0 6.12-2.74 6.12-6.12V329.69c0-3.38-2.73-6.12-6.12-6.12zm0 0a6.11 6.11 0 0 0-6.109 6.12v49.689a6.11 6.11 0 0 0 6.109 6.12c3.391 0 6.12-2.74 6.12-6.12V329.69c0-3.38-2.73-6.12-6.12-6.12zm-.12 71.77a6.12 6.12 0 1 0 0 12.24h.12c3.391 0 6.07-2.74 6.07-6.12s-2.81-6.12-6.19-6.12zm0 0a6.12 6.12 0 1 0 0 12.24h.12c3.391 0 6.07-2.74 6.07-6.12s-2.81-6.12-6.19-6.12zm.12-71.77a6.11 6.11 0 0 0-6.109 6.12v49.689a6.11 6.11 0 0 0 6.109 6.12c3.391 0 6.12-2.74 6.12-6.12V329.69c0-3.38-2.73-6.12-6.12-6.12zm0 0a6.11 6.11 0 0 0-6.109 6.12v49.689a6.11 6.11 0 0 0 6.109 6.12c3.391 0 6.12-2.74 6.12-6.12V329.69c0-3.38-2.73-6.12-6.12-6.12zm-.12 71.77a6.12 6.12 0 1 0 0 12.24h.12c3.391 0 6.07-2.74 6.07-6.12s-2.81-6.12-6.19-6.12zm.12-103.81c-40.83 0-74.05 33.21-74.05 74.04 0 40.84 33.22 74.06 74.05 74.06s74.05-33.22 74.05-74.06c0-40.83-33.22-74.04-74.05-74.04zm6.12 135.55v-3.89a6.115 6.115 0 0 0-6.12-6.131c-3.38 0-6.109 2.74-6.109 6.131v3.89c-29.211-2.89-52.5-26.18-55.391-55.38h3.78c3.38 0 6.12-2.74 6.12-6.13 0-3.38-2.74-6.11-6.12-6.11h-3.78c2.891-29.21 26.18-52.5 55.391-55.39v4.38a6.11 6.11 0 0 0 6.109 6.12c3.391 0 6.12-2.74 6.12-6.12v-4.38c29.21 2.89 52.5 26.18 55.39 55.39h-4.369c-3.391 0-6.131 2.73-6.131 6.11 0 3.39 2.74 6.13 6.131 6.13h4.369c-2.89 29.2-26.18 52.49-55.39 55.38zm-6.12-103.51a6.11 6.11 0 0 0-6.109 6.12v49.689a6.11 6.11 0 0 0 6.109 6.12c3.391 0 6.12-2.74 6.12-6.12V329.69c0-3.38-2.73-6.12-6.12-6.12zm-.12 71.77a6.12 6.12 0 1 0 0 12.24h.12c3.391 0 6.07-2.74 6.07-6.12s-2.81-6.12-6.19-6.12zm0 0a6.12 6.12 0 1 0 0 12.24h.12c3.391 0 6.07-2.74 6.07-6.12s-2.81-6.12-6.19-6.12zm.12-71.77a6.11 6.11 0 0 0-6.109 6.12v49.689a6.11 6.11 0 0 0 6.109 6.12c3.391 0 6.12-2.74 6.12-6.12V329.69c0-3.38-2.73-6.12-6.12-6.12zm0 0a6.11 6.11 0 0 0-6.109 6.12v49.689a6.11 6.11 0 0 0 6.109 6.12c3.391 0 6.12-2.74 6.12-6.12V329.69c0-3.38-2.73-6.12-6.12-6.12zm-.12 71.77a6.12 6.12 0 1 0 0 12.24h.12c3.391 0 6.07-2.74 6.07-6.12s-2.81-6.12-6.19-6.12zm0 0a6.12 6.12 0 1 0 0 12.24h.12c3.391 0 6.07-2.74 6.07-6.12s-2.81-6.12-6.19-6.12zm.12-71.77a6.11 6.11 0 0 0-6.109 6.12v49.689a6.11 6.11 0 0 0 6.109 6.12c3.391 0 6.12-2.74 6.12-6.12V329.69c0-3.38-2.73-6.12-6.12-6.12zm0 0a6.11 6.11 0 0 0-6.109 6.12v49.689a6.11 6.11 0 0 0 6.109 6.12c3.391 0 6.12-2.74 6.12-6.12V329.69c0-3.38-2.73-6.12-6.12-6.12zm-.12 71.77a6.12 6.12 0 1 0 0 12.24h.12c3.391 0 6.07-2.74 6.07-6.12s-2.81-6.12-6.19-6.12zm0 0a6.12 6.12 0 1 0 0 12.24h.12c3.391 0 6.07-2.74 6.07-6.12s-2.81-6.12-6.19-6.12zm.12-71.77a6.11 6.11 0 0 0-6.109 6.12v49.689a6.11 6.11 0 0 0 6.109 6.12c3.391 0 6.12-2.74 6.12-6.12V329.69c0-3.38-2.73-6.12-6.12-6.12zm0 0a6.11 6.11 0 0 0-6.109 6.12v49.689a6.11 6.11 0 0 0 6.109 6.12c3.391 0 6.12-2.74 6.12-6.12V329.69c0-3.38-2.73-6.12-6.12-6.12zm-.12 71.77a6.12 6.12 0 1 0 0 12.24h.12c3.391 0 6.07-2.74 6.07-6.12s-2.81-6.12-6.19-6.12zm0 0a6.12 6.12 0 1 0 0 12.24h.12c3.391 0 6.07-2.74 6.07-6.12s-2.81-6.12-6.19-6.12zm.12-71.77a6.11 6.11 0 0 0-6.109 6.12v49.689a6.11 6.11 0 0 0 6.109 6.12c3.391 0 6.12-2.74 6.12-6.12V329.69c0-3.38-2.73-6.12-6.12-6.12zm0 0a6.11 6.11 0 0 0-6.109 6.12v49.689a6.11 6.11 0 0 0 6.109 6.12c3.391 0 6.12-2.74 6.12-6.12V329.69c0-3.38-2.73-6.12-6.12-6.12zm-.12 71.77a6.12 6.12 0 1 0 0 12.24h.12c3.391 0 6.07-2.74 6.07-6.12s-2.81-6.12-6.19-6.12zm.12-103.81c-40.83 0-74.05 33.21-74.05 74.04 0 40.84 33.22 74.06 74.05 74.06s74.05-33.22 74.05-74.06c0-40.83-33.22-74.04-74.05-74.04zm6.12 135.55v-3.89a6.115 6.115 0 0 0-6.12-6.131c-3.38 0-6.109 2.74-6.109 6.131v3.89c-29.211-2.89-52.5-26.18-55.391-55.38h3.78c3.38 0 6.12-2.74 6.12-6.13 0-3.38-2.74-6.11-6.12-6.11h-3.78c2.891-29.21 26.18-52.5 55.391-55.39v4.38a6.11 6.11 0 0 0 6.109 6.12c3.391 0 6.12-2.74 6.12-6.12v-4.38c29.21 2.89 52.5 26.18 55.39 55.39h-4.369c-3.391 0-6.131 2.73-6.131 6.11 0 3.39 2.74 6.13 6.131 6.13h4.369c-2.89 29.2-26.18 52.49-55.39 55.38zm-6.12-103.51a6.11 6.11 0 0 0-6.109 6.12v49.689a6.11 6.11 0 0 0 6.109 6.12c3.391 0 6.12-2.74 6.12-6.12V329.69c0-3.38-2.73-6.12-6.12-6.12zm-.12 71.77a6.12 6.12 0 1 0 0 12.24h.12c3.391 0 6.07-2.74 6.07-6.12s-2.81-6.12-6.19-6.12zm0 0a6.12 6.12 0 1 0 0 12.24h.12c3.391 0 6.07-2.74 6.07-6.12s-2.81-6.12-6.19-6.12zm.12-71.77a6.11 6.11 0 0 0-6.109 6.12v49.689a6.11 6.11 0 0 0 6.109 6.12c3.391 0 6.12-2.74 6.12-6.12V329.69c0-3.38-2.73-6.12-6.12-6.12zm0 0a6.11 6.11 0 0 0-6.109 6.12v49.689a6.11 6.11 0 0 0 6.109 6.12c3.391 0 6.12-2.74 6.12-6.12V329.69c0-3.38-2.73-6.12-6.12-6.12zm-.12 71.77a6.12 6.12 0 1 0 0 12.24h.12c3.391 0 6.07-2.74 6.07-6.12s-2.81-6.12-6.19-6.12zm0 0a6.12 6.12 0 1 0 0 12.24h.12c3.391 0 6.07-2.74 6.07-6.12s-2.81-6.12-6.19-6.12zm.12-71.77a6.11 6.11 0 0 0-6.109 6.12v49.689a6.11 6.11 0 0 0 6.109 6.12c3.391 0 6.12-2.74 6.12-6.12V329.69c0-3.38-2.73-6.12-6.12-6.12zm0 0a6.11 6.11 0 0 0-6.109 6.12v49.689a6.11 6.11 0 0 0 6.109 6.12c3.391 0 6.12-2.74 6.12-6.12V329.69c0-3.38-2.73-6.12-6.12-6.12zm-.12 71.77a6.12 6.12 0 1 0 0 12.24h.12c3.391 0 6.07-2.74 6.07-6.12s-2.81-6.12-6.19-6.12zm-116.18-88.69h-50.4a6.12 6.12 0 0 0-6.12 6.119v50.53a6.12 6.12 0 0 0 6.12 6.12h50.4c3.39 0 6.13-2.74 6.13-6.12v-50.53a6.122 6.122 0 0 0-6.13-6.119zm-6.11 50.53h-38.17v-38.29h38.17zm6.11-149.55h-50.4a6.12 6.12 0 0 0-6.12 6.12v50.53c0 3.39 2.74 6.12 6.12 6.12h50.4c3.39 0 6.13-2.73 6.13-6.12v-50.53c0-3.38-2.74-6.12-6.13-6.12zm-6.11 50.53h-38.17v-38.29h38.17zm-82.22 48.49h-50.53a6.12 6.12 0 0 0-6.12 6.119v50.53a6.12 6.12 0 0 0 6.12 6.12h50.53a6.12 6.12 0 0 0 6.12-6.12v-50.53a6.12 6.12 0 0 0-6.12-6.119zm-6.12 50.53H164.3v-38.29h38.29zm6.12-149.55h-50.53a6.12 6.12 0 0 0-6.12 6.12v50.53c0 3.39 2.74 6.12 6.12 6.12h50.53c3.38 0 6.12-2.73 6.12-6.12v-50.53a6.12 6.12 0 0 0-6.12-6.12zm-6.12 50.53H164.3v-38.29h38.29zm6.12-50.53h-50.53a6.12 6.12 0 0 0-6.12 6.12v50.53c0 3.39 2.74 6.12 6.12 6.12h50.53c3.38 0 6.12-2.73 6.12-6.12v-50.53a6.12 6.12 0 0 0-6.12-6.12zm-6.12 50.53H164.3v-38.29h38.29zm6.12 48.49h-50.53a6.12 6.12 0 0 0-6.12 6.119v50.53a6.12 6.12 0 0 0 6.12 6.12h50.53a6.12 6.12 0 0 0 6.12-6.12v-50.53a6.12 6.12 0 0 0-6.12-6.119zm-6.12 50.53H164.3v-38.29h38.29zm94.45-149.55h-50.4a6.12 6.12 0 0 0-6.12 6.12v50.53c0 3.39 2.74 6.12 6.12 6.12h50.4c3.39 0 6.13-2.73 6.13-6.12v-50.53c0-3.38-2.74-6.12-6.13-6.12zm-6.11 50.53h-38.17v-38.29h38.17zm6.11 48.49h-50.4a6.12 6.12 0 0 0-6.12 6.119v50.53a6.12 6.12 0 0 0 6.12 6.12h50.4c3.39 0 6.13-2.74 6.13-6.12v-50.53a6.122 6.122 0 0 0-6.13-6.119zm-6.11 50.53h-38.17v-38.29h38.17zm122.29 38.16a6.12 6.12 0 1 0 0 12.24h.12c3.391 0 6.07-2.74 6.07-6.12s-2.81-6.12-6.19-6.12zm.12-71.77a6.11 6.11 0 0 0-6.109 6.12v49.689a6.11 6.11 0 0 0 6.109 6.12c3.391 0 6.12-2.74 6.12-6.12V329.69c0-3.38-2.73-6.12-6.12-6.12zm0 0a6.11 6.11 0 0 0-6.109 6.12v49.689a6.11 6.11 0 0 0 6.109 6.12c3.391 0 6.12-2.74 6.12-6.12V329.69c0-3.38-2.73-6.12-6.12-6.12zm-.12 71.77a6.12 6.12 0 1 0 0 12.24h.12c3.391 0 6.07-2.74 6.07-6.12s-2.81-6.12-6.19-6.12zm0 0a6.12 6.12 0 1 0 0 12.24h.12c3.391 0 6.07-2.74 6.07-6.12s-2.81-6.12-6.19-6.12zm.12-71.77a6.11 6.11 0 0 0-6.109 6.12v49.689a6.11 6.11 0 0 0 6.109 6.12c3.391 0 6.12-2.74 6.12-6.12V329.69c0-3.38-2.73-6.12-6.12-6.12zm0 0a6.11 6.11 0 0 0-6.109 6.12v49.689a6.11 6.11 0 0 0 6.109 6.12c3.391 0 6.12-2.74 6.12-6.12V329.69c0-3.38-2.73-6.12-6.12-6.12zm-.12 71.77a6.12 6.12 0 1 0 0 12.24h.12c3.391 0 6.07-2.74 6.07-6.12s-2.81-6.12-6.19-6.12zm.12-103.81c-40.83 0-74.05 33.21-74.05 74.04 0 40.84 33.22 74.06 74.05 74.06s74.05-33.22 74.05-74.06c0-40.83-33.22-74.04-74.05-74.04zm6.12 135.55v-3.89a6.115 6.115 0 0 0-6.12-6.131c-3.38 0-6.109 2.74-6.109 6.131v3.89c-29.211-2.89-52.5-26.18-55.391-55.38h3.78c3.38 0 6.12-2.74 6.12-6.13 0-3.38-2.74-6.11-6.12-6.11h-3.78c2.891-29.21 26.18-52.5 55.391-55.39v4.38a6.11 6.11 0 0 0 6.109 6.12c3.391 0 6.12-2.74 6.12-6.12v-4.38c29.21 2.89 52.5 26.18 55.39 55.39h-4.369c-3.391 0-6.131 2.73-6.131 6.11 0 3.39 2.74 6.13 6.131 6.13h4.369c-2.89 29.2-26.18 52.49-55.39 55.38zm-6.12-103.51a6.11 6.11 0 0 0-6.109 6.12v49.689a6.11 6.11 0 0 0 6.109 6.12c3.391 0 6.12-2.74 6.12-6.12V329.69c0-3.38-2.73-6.12-6.12-6.12zm-.12 71.77a6.12 6.12 0 1 0 0 12.24h.12c3.391 0 6.07-2.74 6.07-6.12s-2.81-6.12-6.19-6.12zm0 0a6.12 6.12 0 1 0 0 12.24h.12c3.391 0 6.07-2.74 6.07-6.12s-2.81-6.12-6.19-6.12zm.12-71.77a6.11 6.11 0 0 0-6.109 6.12v49.689a6.11 6.11 0 0 0 6.109 6.12c3.391 0 6.12-2.74 6.12-6.12V329.69c0-3.38-2.73-6.12-6.12-6.12zm0 0a6.11 6.11 0 0 0-6.109 6.12v49.689a6.11 6.11 0 0 0 6.109 6.12c3.391 0 6.12-2.74 6.12-6.12V329.69c0-3.38-2.73-6.12-6.12-6.12zm-.12 71.77a6.12 6.12 0 1 0 0 12.24h.12c3.391 0 6.07-2.74 6.07-6.12s-2.81-6.12-6.19-6.12zm0 0a6.12 6.12 0 1 0 0 12.24h.12c3.391 0 6.07-2.74 6.07-6.12s-2.81-6.12-6.19-6.12zm.12-71.77a6.11 6.11 0 0 0-6.109 6.12v49.689a6.11 6.11 0 0 0 6.109 6.12c3.391 0 6.12-2.74 6.12-6.12V329.69c0-3.38-2.73-6.12-6.12-6.12zm0 0a6.11 6.11 0 0 0-6.109 6.12v49.689a6.11 6.11 0 0 0 6.109 6.12c3.391 0 6.12-2.74 6.12-6.12V329.69c0-3.38-2.73-6.12-6.12-6.12zm-.12 71.77a6.12 6.12 0 1 0 0 12.24h.12c3.391 0 6.07-2.74 6.07-6.12s-2.81-6.12-6.19-6.12zm.12-103.81c-40.83 0-74.05 33.21-74.05 74.04 0 40.84 33.22 74.06 74.05 74.06s74.05-33.22 74.05-74.06c0-40.83-33.22-74.04-74.05-74.04zm6.12 135.55v-3.89a6.115 6.115 0 0 0-6.12-6.131c-3.38 0-6.109 2.74-6.109 6.131v3.89c-29.211-2.89-52.5-26.18-55.391-55.38h3.78c3.38 0 6.12-2.74 6.12-6.13 0-3.38-2.74-6.11-6.12-6.11h-3.78c2.891-29.21 26.18-52.5 55.391-55.39v4.38a6.11 6.11 0 0 0 6.109 6.12c3.391 0 6.12-2.74 6.12-6.12v-4.38c29.21 2.89 52.5 26.18 55.39 55.39h-4.369c-3.391 0-6.131 2.73-6.131 6.11 0 3.39 2.74 6.13 6.131 6.13h4.369c-2.89 29.2-26.18 52.49-55.39 55.38zm-6.12-103.51a6.11 6.11 0 0 0-6.109 6.12v49.689a6.11 6.11 0 0 0 6.109 6.12c3.391 0 6.12-2.74 6.12-6.12V329.69c0-3.38-2.73-6.12-6.12-6.12zm-.12 71.77a6.12 6.12 0 1 0 0 12.24h.12c3.391 0 6.07-2.74 6.07-6.12s-2.81-6.12-6.19-6.12zm0 0a6.12 6.12 0 1 0 0 12.24h.12c3.391 0 6.07-2.74 6.07-6.12s-2.81-6.12-6.19-6.12zm.12-71.77a6.11 6.11 0 0 0-6.109 6.12v49.689a6.11 6.11 0 0 0 6.109 6.12c3.391 0 6.12-2.74 6.12-6.12V329.69c0-3.38-2.73-6.12-6.12-6.12zm0 0a6.11 6.11 0 0 0-6.109 6.12v49.689a6.11 6.11 0 0 0 6.109 6.12c3.391 0 6.12-2.74 6.12-6.12V329.69c0-3.38-2.73-6.12-6.12-6.12zm-.12 71.77a6.12 6.12 0 1 0 0 12.24h.12c3.391 0 6.07-2.74 6.07-6.12s-2.81-6.12-6.19-6.12zm-116.18-88.69h-50.4a6.12 6.12 0 0 0-6.12 6.119v50.53a6.12 6.12 0 0 0 6.12 6.12h50.4c3.39 0 6.13-2.74 6.13-6.12v-50.53a6.122 6.122 0 0 0-6.13-6.119zm-6.11 50.53h-38.17v-38.29h38.17zm6.11-149.55h-50.4a6.12 6.12 0 0 0-6.12 6.12v50.53c0 3.39 2.74 6.12 6.12 6.12h50.4c3.39 0 6.13-2.73 6.13-6.12v-50.53c0-3.38-2.74-6.12-6.13-6.12zm-6.11 50.53h-38.17v-38.29h38.17zm-82.22 48.49h-50.53a6.12 6.12 0 0 0-6.12 6.119v50.53a6.12 6.12 0 0 0 6.12 6.12h50.53a6.12 6.12 0 0 0 6.12-6.12v-50.53a6.12 6.12 0 0 0-6.12-6.119zm-6.12 50.53H164.3v-38.29h38.29zm6.12-149.55h-50.53a6.12 6.12 0 0 0-6.12 6.12v50.53c0 3.39 2.74 6.12 6.12 6.12h50.53c3.38 0 6.12-2.73 6.12-6.12v-50.53a6.12 6.12 0 0 0-6.12-6.12zm-6.12 50.53H164.3v-38.29h38.29zm6.12-50.53h-50.53a6.12 6.12 0 0 0-6.12 6.12v50.53c0 3.39 2.74 6.12 6.12 6.12h50.53c3.38 0 6.12-2.73 6.12-6.12v-50.53a6.12 6.12 0 0 0-6.12-6.12zm-6.12 50.53H164.3v-38.29h38.29zm6.12 48.49h-50.53a6.12 6.12 0 0 0-6.12 6.119v50.53a6.12 6.12 0 0 0 6.12 6.12h50.53a6.12 6.12 0 0 0 6.12-6.12v-50.53a6.12 6.12 0 0 0-6.12-6.119zm-6.12 50.53H164.3v-38.29h38.29zm94.45-149.55h-50.4a6.12 6.12 0 0 0-6.12 6.12v50.53c0 3.39 2.74 6.12 6.12 6.12h50.4c3.39 0 6.13-2.73 6.13-6.12v-50.53c0-3.38-2.74-6.12-6.13-6.12zm-6.11 50.53h-38.17v-38.29h38.17zm6.11 48.49h-50.4a6.12 6.12 0 0 0-6.12 6.119v50.53a6.12 6.12 0 0 0 6.12 6.12h50.4c3.39 0 6.13-2.74 6.13-6.12v-50.53a6.122 6.122 0 0 0-6.13-6.119zm-6.11 50.53h-38.17v-38.29h38.17zm122.29 38.16a6.12 6.12 0 1 0 0 12.24h.12c3.391 0 6.07-2.74 6.07-6.12s-2.81-6.12-6.19-6.12zm.12-71.77a6.11 6.11 0 0 0-6.109 6.12v49.689a6.11 6.11 0 0 0 6.109 6.12c3.391 0 6.12-2.74 6.12-6.12V329.69c0-3.38-2.73-6.12-6.12-6.12zm0 0a6.11 6.11 0 0 0-6.109 6.12v49.689a6.11 6.11 0 0 0 6.109 6.12c3.391 0 6.12-2.74 6.12-6.12V329.69c0-3.38-2.73-6.12-6.12-6.12zm-.12 71.77a6.12 6.12 0 1 0 0 12.24h.12c3.391 0 6.07-2.74 6.07-6.12s-2.81-6.12-6.19-6.12zm.12-103.81c-40.83 0-74.05 33.21-74.05 74.04 0 40.84 33.22 74.06 74.05 74.06s74.05-33.22 74.05-74.06c0-40.83-33.22-74.04-74.05-74.04zm6.12 135.55v-3.89a6.115 6.115 0 0 0-6.12-6.131c-3.38 0-6.109 2.74-6.109 6.131v3.89c-29.211-2.89-52.5-26.18-55.391-55.38h3.78c3.38 0 6.12-2.74 6.12-6.13 0-3.38-2.74-6.11-6.12-6.11h-3.78c2.891-29.21 26.18-52.5 55.391-55.39v4.38a6.11 6.11 0 0 0 6.109 6.12c3.391 0 6.12-2.74 6.12-6.12v-4.38c29.21 2.89 52.5 26.18 55.39 55.39h-4.369c-3.391 0-6.131 2.73-6.131 6.11 0 3.39 2.74 6.13 6.131 6.13h4.369c-2.89 29.2-26.18 52.49-55.39 55.38zm-6.12-103.51a6.11 6.11 0 0 0-6.109 6.12v49.689a6.11 6.11 0 0 0 6.109 6.12c3.391 0 6.12-2.74 6.12-6.12V329.69c0-3.38-2.73-6.12-6.12-6.12zm-.12 71.77a6.12 6.12 0 1 0 0 12.24h.12c3.391 0 6.07-2.74 6.07-6.12s-2.81-6.12-6.19-6.12zm.12-103.81c-40.83 0-74.05 33.21-74.05 74.04 0 40.84 33.22 74.06 74.05 74.06s74.05-33.22 74.05-74.06c0-40.83-33.22-74.04-74.05-74.04zm6.12 135.55v-3.89a6.115 6.115 0 0 0-6.12-6.131c-3.38 0-6.109 2.74-6.109 6.131v3.89c-29.211-2.89-52.5-26.18-55.391-55.38h3.78c3.38 0 6.12-2.74 6.12-6.13 0-3.38-2.74-6.11-6.12-6.11h-3.78c2.891-29.21 26.18-52.5 55.391-55.39v4.38a6.11 6.11 0 0 0 6.109 6.12c3.391 0 6.12-2.74 6.12-6.12v-4.38c29.21 2.89 52.5 26.18 55.39 55.39h-4.369c-3.391 0-6.131 2.73-6.131 6.11 0 3.39 2.74 6.13 6.131 6.13h4.369c-2.89 29.2-26.18 52.49-55.39 55.38zm-6.12-103.51a6.11 6.11 0 0 0-6.109 6.12v49.689a6.11 6.11 0 0 0 6.109 6.12c3.391 0 6.12-2.74 6.12-6.12V329.69c0-3.38-2.73-6.12-6.12-6.12zm-.12 71.77a6.12 6.12 0 1 0 0 12.24h.12c3.391 0 6.07-2.74 6.07-6.12s-2.81-6.12-6.19-6.12zm-116.18-88.69h-50.4a6.12 6.12 0 0 0-6.12 6.119v50.53a6.12 6.12 0 0 0 6.12 6.12h50.4c3.39 0 6.13-2.74 6.13-6.12v-50.53a6.122 6.122 0 0 0-6.13-6.119zm-6.11 50.53h-38.17v-38.29h38.17zm6.11-149.55h-50.4a6.12 6.12 0 0 0-6.12 6.12v50.53c0 3.39 2.74 6.12 6.12 6.12h50.4c3.39 0 6.13-2.73 6.13-6.12v-50.53c0-3.38-2.74-6.12-6.13-6.12zm-6.11 50.53h-38.17v-38.29h38.17zm-82.22 48.49h-50.53a6.12 6.12 0 0 0-6.12 6.119v50.53a6.12 6.12 0 0 0 6.12 6.12h50.53a6.12 6.12 0 0 0 6.12-6.12v-50.53a6.12 6.12 0 0 0-6.12-6.119zm-6.12 50.53H164.3v-38.29h38.29zm6.12-149.55h-50.53a6.12 6.12 0 0 0-6.12 6.12v50.53c0 3.39 2.74 6.12 6.12 6.12h50.53c3.38 0 6.12-2.73 6.12-6.12v-50.53a6.12 6.12 0 0 0-6.12-6.12zm-6.12 50.53H164.3v-38.29h38.29zm285.54 52.81 2.75-2.75c6-6 6-15.75 0-21.739-5.79-5.801-15.939-5.801-21.74 0l-3.01 3.01c-5.27-3.66-10.92-6.811-16.899-9.33V122.3c0-17.41-14.11-31.57-31.45-31.57h-42.49V71.41c0-9.73-7.91-17.64-17.63-17.64-9.73 0-17.65 7.91-17.65 17.64v19.32H115.22V71.41c0-9.73-7.92-17.64-17.64-17.64-9.66 0-17.53 7.91-17.53 17.64v19.32H37.57C20.16 90.73 6 104.89 6 122.3v280.6c0 17.409 14.16 31.56 31.57 31.56h313.81c16.44 14.771 38.17 23.771 61.96 23.771 51.09 0 92.66-41.561 92.66-92.66 0-20.401-6.65-39.281-17.87-54.601zm-10.33-15.84c.79-.78 1.73-.91 2.21-.91.49 0 1.42.13 2.221.91a3.157 3.157 0 0 1 0 4.43l-2 2a103.102 103.102 0 0 0-4.461-4.39zM352.25 71.41c0-2.97 2.43-5.4 5.41-5.4 2.97 0 5.399 2.43 5.399 5.4v42.37h-10.81V71.41zm-259.96 0c0-2.97 2.38-5.4 5.29-5.4 2.97 0 5.4 2.43 5.4 5.4v42.37H92.29zM18.24 122.3c0-10.66 8.67-19.33 19.33-19.33h42.48v16.93a6.12 6.12 0 0 0 6.12 6.12h22.93a6.12 6.12 0 0 0 6.12-6.12v-16.93h224.79v16.93a6.12 6.12 0 0 0 6.12 6.12h23.05c3.38 0 6.11-2.74 6.11-6.12v-16.93h42.49c10.59 0 19.21 8.67 19.21 19.33v38.05H18.24zm19.33 299.93c-10.66 0-19.33-8.681-19.33-19.33v-39.95l59.279 59.28zm48.61-8.66L26.9 354.29h39.95c10.65 0 19.33 8.62 19.33 19.21zm-10.33-70.19v-24.49h38.29v38.29H93.78c-4.03-6.57-10.38-11.56-17.93-13.8zm22.57 78.85V373.5c0-1.39-.12-2.74-.3-4.08h22.14a6.12 6.12 0 0 0 6.12-6.12v-50.53a6.12 6.12 0 0 0-6.12-6.119H69.73a6.118 6.118 0 0 0-6.12 6.119v29.29H18.24V172.59h418.75v59.65h-45.37v-18.49a6.12 6.12 0 0 0-6.12-6.12h-50.53a6.12 6.12 0 0 0-6.12 6.12v50.53c0 3.39 2.74 6.12 6.12 6.12h50.53c3.38 0 6.12-2.73 6.12-6.12v-1.561h15.61v10.431a92.247 92.247 0 0 0-46.771 16.359l-3.03-3.029c-6-6-15.75-6-21.75 0-5.989 5.989-5.989 15.739.051 21.779l2.739 2.69c-11.239 15.33-17.899 34.21-17.899 54.62 0 21.33 7.27 40.979 19.439 56.66H98.42zm321.04-159.51h17.53v13.271a92.017 92.017 0 0 0-17.53-2.84zm-24.96-12.24v-6h37.57v6zm-15.12-30.61v38.29h-38.29v-38.29zm-28.56 77.32a86.278 86.278 0 0 0-4.44 4.369l-2.04-2c-1.22-1.22-1.22-3.21 0-4.43s3.21-1.22 4.43 0zm62.52 148.8c-44.399 0-80.53-36.07-80.53-80.42 0-44.33 36.131-80.41 80.53-80.41 44.34 0 80.42 36.08 80.42 80.41 0 44.35-36.08 80.42-80.42 80.42zm0-154.46c-40.83 0-74.05 33.21-74.05 74.04 0 40.84 33.22 74.06 74.05 74.06s74.05-33.22 74.05-74.06c0-40.83-33.22-74.04-74.05-74.04zm6.12 135.55v-3.89a6.115 6.115 0 0 0-6.12-6.131c-3.38 0-6.109 2.74-6.109 6.131v3.89c-29.211-2.89-52.5-26.18-55.391-55.38h3.78c3.38 0 6.12-2.74 6.12-6.13 0-3.38-2.74-6.11-6.12-6.11h-3.78c2.891-29.21 26.18-52.5 55.391-55.39v4.38a6.11 6.11 0 0 0 6.109 6.12c3.391 0 6.12-2.74 6.12-6.12v-4.38c29.21 2.89 52.5 26.18 55.39 55.39h-4.369c-3.391 0-6.131 2.73-6.131 6.11 0 3.39 2.74 6.13 6.131 6.13h4.369c-2.89 29.2-26.18 52.49-55.39 55.38zm-6.12-103.51a6.11 6.11 0 0 0-6.109 6.12v49.689a6.11 6.11 0 0 0 6.109 6.12c3.391 0 6.12-2.74 6.12-6.12V329.69c0-3.38-2.73-6.12-6.12-6.12zm-.12 71.77a6.12 6.12 0 1 0 0 12.24h.12c3.391 0 6.07-2.74 6.07-6.12s-2.81-6.12-6.19-6.12zm-116.18-88.69h-50.4a6.12 6.12 0 0 0-6.12 6.119v50.53a6.12 6.12 0 0 0 6.12 6.12h50.4c3.39 0 6.13-2.74 6.13-6.12v-50.53a6.122 6.122 0 0 0-6.13-6.119zm-6.11 50.53h-38.17v-38.29h38.17zm6.11-149.55h-50.4a6.12 6.12 0 0 0-6.12 6.12v50.53c0 3.39 2.74 6.12 6.12 6.12h50.4c3.39 0 6.13-2.73 6.13-6.12v-50.53c0-3.38-2.74-6.12-6.13-6.12zm-6.11 50.53h-38.17v-38.29h38.17zm-82.22 48.49h-50.53a6.12 6.12 0 0 0-6.12 6.119v50.53a6.12 6.12 0 0 0 6.12 6.12h50.53a6.12 6.12 0 0 0 6.12-6.12v-50.53a6.12 6.12 0 0 0-6.12-6.119zm-6.12 50.53H164.3v-38.29h38.29zm6.12-149.55h-50.53a6.12 6.12 0 0 0-6.12 6.12v50.53c0 3.39 2.74 6.12 6.12 6.12h50.53c3.38 0 6.12-2.73 6.12-6.12v-50.53a6.12 6.12 0 0 0-6.12-6.12zm-6.12 50.53H164.3v-38.29h38.29zm6.12-50.53h-50.53a6.12 6.12 0 0 0-6.12 6.12v50.53c0 3.39 2.74 6.12 6.12 6.12h50.53c3.38 0 6.12-2.73 6.12-6.12v-50.53a6.12 6.12 0 0 0-6.12-6.12zm-6.12 50.53H164.3v-38.29h38.29zm6.12 48.49h-50.53a6.12 6.12 0 0 0-6.12 6.119v50.53a6.12 6.12 0 0 0 6.12 6.12h50.53a6.12 6.12 0 0 0 6.12-6.12v-50.53a6.12 6.12 0 0 0-6.12-6.119zm-6.12 50.53H164.3v-38.29h38.29zm94.45-149.55h-50.4a6.12 6.12 0 0 0-6.12 6.12v50.53c0 3.39 2.74 6.12 6.12 6.12h50.4c3.39 0 6.13-2.73 6.13-6.12v-50.53c0-3.38-2.74-6.12-6.13-6.12zm-6.11 50.53h-38.17v-38.29h38.17zm6.11 48.49h-50.4a6.12 6.12 0 0 0-6.12 6.119v50.53a6.12 6.12 0 0 0 6.12 6.12h50.4c3.39 0 6.13-2.74 6.13-6.12v-50.53a6.122 6.122 0 0 0-6.13-6.119zm-6.11 50.53h-38.17v-38.29h38.17zm122.29 38.16a6.12 6.12 0 1 0 0 12.24h.12c3.391 0 6.07-2.74 6.07-6.12s-2.81-6.12-6.19-6.12zm.12-71.77a6.11 6.11 0 0 0-6.109 6.12v49.689a6.11 6.11 0 0 0 6.109 6.12c3.391 0 6.12-2.74 6.12-6.12V329.69c0-3.38-2.73-6.12-6.12-6.12zm0 0a6.11 6.11 0 0 0-6.109 6.12v49.689a6.11 6.11 0 0 0 6.109 6.12c3.391 0 6.12-2.74 6.12-6.12V329.69c0-3.38-2.73-6.12-6.12-6.12zm-.12 71.77a6.12 6.12 0 1 0 0 12.24h.12c3.391 0 6.07-2.74 6.07-6.12s-2.81-6.12-6.19-6.12zm.12-103.81c-40.83 0-74.05 33.21-74.05 74.04 0 40.84 33.22 74.06 74.05 74.06s74.05-33.22 74.05-74.06c0-40.83-33.22-74.04-74.05-74.04zm6.12 135.55v-3.89a6.115 6.115 0 0 0-6.12-6.131c-3.38 0-6.109 2.74-6.109 6.131v3.89c-29.211-2.89-52.5-26.18-55.391-55.38h3.78c3.38 0 6.12-2.74 6.12-6.13 0-3.38-2.74-6.11-6.12-6.11h-3.78c2.891-29.21 26.18-52.5 55.391-55.39v4.38a6.11 6.11 0 0 0 6.109 6.12c3.391 0 6.12-2.74 6.12-6.12v-4.38c29.21 2.89 52.5 26.18 55.39 55.39h-4.369c-3.391 0-6.131 2.73-6.131 6.11 0 3.39 2.74 6.13 6.131 6.13h4.369c-2.89 29.2-26.18 52.49-55.39 55.38zm-6.12-103.51a6.11 6.11 0 0 0-6.109 6.12v49.689a6.11 6.11 0 0 0 6.109 6.12c3.391 0 6.12-2.74 6.12-6.12V329.69c0-3.38-2.73-6.12-6.12-6.12zm-.12 71.77a6.12 6.12 0 1 0 0 12.24h.12c3.391 0 6.07-2.74 6.07-6.12s-2.81-6.12-6.19-6.12zm0 0a6.12 6.12 0 1 0 0 12.24h.12c3.391 0 6.07-2.74 6.07-6.12s-2.81-6.12-6.19-6.12zm.12-71.77a6.11 6.11 0 0 0-6.109 6.12v49.689a6.11 6.11 0 0 0 6.109 6.12c3.391 0 6.12-2.74 6.12-6.12V329.69c0-3.38-2.73-6.12-6.12-6.12zm0 0a6.11 6.11 0 0 0-6.109 6.12v49.689a6.11 6.11 0 0 0 6.109 6.12c3.391 0 6.12-2.74 6.12-6.12V329.69c0-3.38-2.73-6.12-6.12-6.12zm-.12 71.77a6.12 6.12 0 1 0 0 12.24h.12c3.391 0 6.07-2.74 6.07-6.12s-2.81-6.12-6.19-6.12zm.12-103.81c-40.83 0-74.05 33.21-74.05 74.04 0 40.84 33.22 74.06 74.05 74.06s74.05-33.22 74.05-74.06c0-40.83-33.22-74.04-74.05-74.04zm6.12 135.55v-3.89a6.115 6.115 0 0 0-6.12-6.131c-3.38 0-6.109 2.74-6.109 6.131v3.89c-29.211-2.89-52.5-26.18-55.391-55.38h3.78c3.38 0 6.12-2.74 6.12-6.13 0-3.38-2.74-6.11-6.12-6.11h-3.78c2.891-29.21 26.18-52.5 55.391-55.39v4.38a6.11 6.11 0 0 0 6.109 6.12c3.391 0 6.12-2.74 6.12-6.12v-4.38c29.21 2.89 52.5 26.18 55.39 55.39h-4.369c-3.391 0-6.131 2.73-6.131 6.11 0 3.39 2.74 6.13 6.131 6.13h4.369c-2.89 29.2-26.18 52.49-55.39 55.38zm-6.12-103.51a6.11 6.11 0 0 0-6.109 6.12v49.689a6.11 6.11 0 0 0 6.109 6.12c3.391 0 6.12-2.74 6.12-6.12V329.69c0-3.38-2.73-6.12-6.12-6.12zm-.12 71.77a6.12 6.12 0 1 0 0 12.24h.12c3.391 0 6.07-2.74 6.07-6.12s-2.81-6.12-6.19-6.12zm0 0a6.12 6.12 0 1 0 0 12.24h.12c3.391 0 6.07-2.74 6.07-6.12s-2.81-6.12-6.19-6.12zm.12-71.77a6.11 6.11 0 0 0-6.109 6.12v49.689a6.11 6.11 0 0 0 6.109 6.12c3.391 0 6.12-2.74 6.12-6.12V329.69c0-3.38-2.73-6.12-6.12-6.12zm0 0a6.11 6.11 0 0 0-6.109 6.12v49.689a6.11 6.11 0 0 0 6.109 6.12c3.391 0 6.12-2.74 6.12-6.12V329.69c0-3.38-2.73-6.12-6.12-6.12zm-.12 71.77a6.12 6.12 0 1 0 0 12.24h.12c3.391 0 6.07-2.74 6.07-6.12s-2.81-6.12-6.19-6.12zm-116.18-88.69h-50.4a6.12 6.12 0 0 0-6.12 6.119v50.53a6.12 6.12 0 0 0 6.12 6.12h50.4c3.39 0 6.13-2.74 6.13-6.12v-50.53a6.122 6.122 0 0 0-6.13-6.119zm-6.11 50.53h-38.17v-38.29h38.17zm6.11-149.55h-50.4a6.12 6.12 0 0 0-6.12 6.12v50.53c0 3.39 2.74 6.12 6.12 6.12h50.4c3.39 0 6.13-2.73 6.13-6.12v-50.53c0-3.38-2.74-6.12-6.13-6.12zm-6.11 50.53h-38.17v-38.29h38.17zm-82.22 48.49h-50.53a6.12 6.12 0 0 0-6.12 6.119v50.53a6.12 6.12 0 0 0 6.12 6.12h50.53a6.12 6.12 0 0 0 6.12-6.12v-50.53a6.12 6.12 0 0 0-6.12-6.119zm-6.12 50.53H164.3v-38.29h38.29zm6.12-149.55h-50.53a6.12 6.12 0 0 0-6.12 6.12v50.53c0 3.39 2.74 6.12 6.12 6.12h50.53c3.38 0 6.12-2.73 6.12-6.12v-50.53a6.12 6.12 0 0 0-6.12-6.12zm-6.12 50.53H164.3v-38.29h38.29zm6.12-50.53h-50.53a6.12 6.12 0 0 0-6.12 6.12v50.53c0 3.39 2.74 6.12 6.12 6.12h50.53c3.38 0 6.12-2.73 6.12-6.12v-50.53a6.12 6.12 0 0 0-6.12-6.12zm-6.12 50.53H164.3v-38.29h38.29zm6.12 48.49h-50.53a6.12 6.12 0 0 0-6.12 6.119v50.53a6.12 6.12 0 0 0 6.12 6.12h50.53a6.12 6.12 0 0 0 6.12-6.12v-50.53a6.12 6.12 0 0 0-6.12-6.119zm-6.12 50.53H164.3v-38.29h38.29zm94.45-149.55h-50.4a6.12 6.12 0 0 0-6.12 6.12v50.53c0 3.39 2.74 6.12 6.12 6.12h50.4c3.39 0 6.13-2.73 6.13-6.12v-50.53c0-3.38-2.74-6.12-6.13-6.12zm-6.11 50.53h-38.17v-38.29h38.17zm6.11 48.49h-50.4a6.12 6.12 0 0 0-6.12 6.119v50.53a6.12 6.12 0 0 0 6.12 6.12h50.4c3.39 0 6.13-2.74 6.13-6.12v-50.53a6.122 6.122 0 0 0-6.13-6.119zm-6.11 50.53h-38.17v-38.29h38.17zm122.29 38.16a6.12 6.12 0 1 0 0 12.24h.12c3.391 0 6.07-2.74 6.07-6.12s-2.81-6.12-6.19-6.12zm.12-71.77a6.11 6.11 0 0 0-6.109 6.12v49.689a6.11 6.11 0 0 0 6.109 6.12c3.391 0 6.12-2.74 6.12-6.12V329.69c0-3.38-2.73-6.12-6.12-6.12zm0 0a6.11 6.11 0 0 0-6.109 6.12v49.689a6.11 6.11 0 0 0 6.109 6.12c3.391 0 6.12-2.74 6.12-6.12V329.69c0-3.38-2.73-6.12-6.12-6.12zm-.12 71.77a6.12 6.12 0 1 0 0 12.24h.12c3.391 0 6.07-2.74 6.07-6.12s-2.81-6.12-6.19-6.12zm0 0a6.12 6.12 0 1 0 0 12.24h.12c3.391 0 6.07-2.74 6.07-6.12s-2.81-6.12-6.19-6.12zm.12-71.77a6.11 6.11 0 0 0-6.109 6.12v49.689a6.11 6.11 0 0 0 6.109 6.12c3.391 0 6.12-2.74 6.12-6.12V329.69c0-3.38-2.73-6.12-6.12-6.12zm0 0a6.11 6.11 0 0 0-6.109 6.12v49.689a6.11 6.11 0 0 0 6.109 6.12c3.391 0 6.12-2.74 6.12-6.12V329.69c0-3.38-2.73-6.12-6.12-6.12zm-.12 71.77a6.12 6.12 0 1 0 0 12.24h.12c3.391 0 6.07-2.74 6.07-6.12s-2.81-6.12-6.19-6.12zm.12-103.81c-40.83 0-74.05 33.21-74.05 74.04 0 40.84 33.22 74.06 74.05 74.06s74.05-33.22 74.05-74.06c0-40.83-33.22-74.04-74.05-74.04zm6.12 135.55v-3.89a6.115 6.115 0 0 0-6.12-6.131c-3.38 0-6.109 2.74-6.109 6.131v3.89c-29.211-2.89-52.5-26.18-55.391-55.38h3.78c3.38 0 6.12-2.74 6.12-6.13 0-3.38-2.74-6.11-6.12-6.11h-3.78c2.891-29.21 26.18-52.5 55.391-55.39v4.38a6.11 6.11 0 0 0 6.109 6.12c3.391 0 6.12-2.74 6.12-6.12v-4.38c29.21 2.89 52.5 26.18 55.39 55.39h-4.369c-3.391 0-6.131 2.73-6.131 6.11 0 3.39 2.74 6.13 6.131 6.13h4.369c-2.89 29.2-26.18 52.49-55.39 55.38zm-6.12-103.51a6.11 6.11 0 0 0-6.109 6.12v49.689a6.11 6.11 0 0 0 6.109 6.12c3.391 0 6.12-2.74 6.12-6.12V329.69c0-3.38-2.73-6.12-6.12-6.12zm-.12 71.77a6.12 6.12 0 1 0 0 12.24h.12c3.391 0 6.07-2.74 6.07-6.12s-2.81-6.12-6.19-6.12zm0 0a6.12 6.12 0 1 0 0 12.24h.12c3.391 0 6.07-2.74 6.07-6.12s-2.81-6.12-6.19-6.12zm.12-71.77a6.11 6.11 0 0 0-6.109 6.12v49.689a6.11 6.11 0 0 0 6.109 6.12c3.391 0 6.12-2.74 6.12-6.12V329.69c0-3.38-2.73-6.12-6.12-6.12zm0 0a6.11 6.11 0 0 0-6.109 6.12v49.689a6.11 6.11 0 0 0 6.109 6.12c3.391 0 6.12-2.74 6.12-6.12V329.69c0-3.38-2.73-6.12-6.12-6.12zm-.12 71.77a6.12 6.12 0 1 0 0 12.24h.12c3.391 0 6.07-2.74 6.07-6.12s-2.81-6.12-6.19-6.12zm0 0a6.12 6.12 0 1 0 0 12.24h.12c3.391 0 6.07-2.74 6.07-6.12s-2.81-6.12-6.19-6.12zm.12-71.77a6.11 6.11 0 0 0-6.109 6.12v49.689a6.11 6.11 0 0 0 6.109 6.12c3.391 0 6.12-2.74 6.12-6.12V329.69c0-3.38-2.73-6.12-6.12-6.12zm0 0a6.11 6.11 0 0 0-6.109 6.12v49.689a6.11 6.11 0 0 0 6.109 6.12c3.391 0 6.12-2.74 6.12-6.12V329.69c0-3.38-2.73-6.12-6.12-6.12zm-.12 71.77a6.12 6.12 0 1 0 0 12.24h.12c3.391 0 6.07-2.74 6.07-6.12s-2.81-6.12-6.19-6.12zm0 0a6.12 6.12 0 1 0 0 12.24h.12c3.391 0 6.07-2.74 6.07-6.12s-2.81-6.12-6.19-6.12zm.12-71.77a6.11 6.11 0 0 0-6.109 6.12v49.689a6.11 6.11 0 0 0 6.109 6.12c3.391 0 6.12-2.74 6.12-6.12V329.69c0-3.38-2.73-6.12-6.12-6.12zm0 0a6.11 6.11 0 0 0-6.109 6.12v49.689a6.11 6.11 0 0 0 6.109 6.12c3.391 0 6.12-2.74 6.12-6.12V329.69c0-3.38-2.73-6.12-6.12-6.12zm-.12 71.77a6.12 6.12 0 1 0 0 12.24h.12c3.391 0 6.07-2.74 6.07-6.12s-2.81-6.12-6.19-6.12zm.12-103.81c-40.83 0-74.05 33.21-74.05 74.04 0 40.84 33.22 74.06 74.05 74.06s74.05-33.22 74.05-74.06c0-40.83-33.22-74.04-74.05-74.04zm6.12 135.55v-3.89a6.115 6.115 0 0 0-6.12-6.131c-3.38 0-6.109 2.74-6.109 6.131v3.89c-29.211-2.89-52.5-26.18-55.391-55.38h3.78c3.38 0 6.12-2.74 6.12-6.13 0-3.38-2.74-6.11-6.12-6.11h-3.78c2.891-29.21 26.18-52.5 55.391-55.39v4.38a6.11 6.11 0 0 0 6.109 6.12c3.391 0 6.12-2.74 6.12-6.12v-4.38c29.21 2.89 52.5 26.18 55.39 55.39h-4.369c-3.391 0-6.131 2.73-6.131 6.11 0 3.39 2.74 6.13 6.131 6.13h4.369c-2.89 29.2-26.18 52.49-55.39 55.38zm-6.12-103.51a6.11 6.11 0 0 0-6.109 6.12v49.689a6.11 6.11 0 0 0 6.109 6.12c3.391 0 6.12-2.74 6.12-6.12V329.69c0-3.38-2.73-6.12-6.12-6.12zm-.12 71.77a6.12 6.12 0 1 0 0 12.24h.12c3.391 0 6.07-2.74 6.07-6.12s-2.81-6.12-6.19-6.12zm0 0a6.12 6.12 0 1 0 0 12.24h.12c3.391 0 6.07-2.74 6.07-6.12s-2.81-6.12-6.19-6.12zm.12-71.77a6.11 6.11 0 0 0-6.109 6.12v49.689a6.11 6.11 0 0 0 6.109 6.12c3.391 0 6.12-2.74 6.12-6.12V329.69c0-3.38-2.73-6.12-6.12-6.12zm0 0a6.11 6.11 0 0 0-6.109 6.12v49.689a6.11 6.11 0 0 0 6.109 6.12c3.391 0 6.12-2.74 6.12-6.12V329.69c0-3.38-2.73-6.12-6.12-6.12zm-.12 71.77a6.12 6.12 0 1 0 0 12.24h.12c3.391 0 6.07-2.74 6.07-6.12s-2.81-6.12-6.19-6.12zm0 0a6.12 6.12 0 1 0 0 12.24h.12c3.391 0 6.07-2.74 6.07-6.12s-2.81-6.12-6.19-6.12zm.12-71.77a6.11 6.11 0 0 0-6.109 6.12v49.689a6.11 6.11 0 0 0 6.109 6.12c3.391 0 6.12-2.74 6.12-6.12V329.69c0-3.38-2.73-6.12-6.12-6.12zm0 0a6.11 6.11 0 0 0-6.109 6.12v49.689a6.11 6.11 0 0 0 6.109 6.12c3.391 0 6.12-2.74 6.12-6.12V329.69c0-3.38-2.73-6.12-6.12-6.12zm-.12 71.77a6.12 6.12 0 1 0 0 12.24h.12c3.391 0 6.07-2.74 6.07-6.12s-2.81-6.12-6.19-6.12zm-116.18-88.69h-50.4a6.12 6.12 0 0 0-6.12 6.119v50.53a6.12 6.12 0 0 0 6.12 6.12h50.4c3.39 0 6.13-2.74 6.13-6.12v-50.53a6.122 6.122 0 0 0-6.13-6.119zm-6.11 50.53h-38.17v-38.29h38.17zm6.11-149.55h-50.4a6.12 6.12 0 0 0-6.12 6.12v50.53c0 3.39 2.74 6.12 6.12 6.12h50.4c3.39 0 6.13-2.73 6.13-6.12v-50.53c0-3.38-2.74-6.12-6.13-6.12zm-6.11 50.53h-38.17v-38.29h38.17zm-82.22 48.49h-50.53a6.12 6.12 0 0 0-6.12 6.119v50.53a6.12 6.12 0 0 0 6.12 6.12h50.53a6.12 6.12 0 0 0 6.12-6.12v-50.53a6.12 6.12 0 0 0-6.12-6.119zm-6.12 50.53H164.3v-38.29h38.29zm6.12-149.55h-50.53a6.12 6.12 0 0 0-6.12 6.12v50.53c0 3.39 2.74 6.12 6.12 6.12h50.53c3.38 0 6.12-2.73 6.12-6.12v-50.53a6.12 6.12 0 0 0-6.12-6.12zm-6.12 50.53H164.3v-38.29h38.29zm6.12-50.53h-50.53a6.12 6.12 0 0 0-6.12 6.12v50.53c0 3.39 2.74 6.12 6.12 6.12h50.53c3.38 0 6.12-2.73 6.12-6.12v-50.53a6.12 6.12 0 0 0-6.12-6.12zm-6.12 50.53H164.3v-38.29h38.29zm6.12 48.49h-50.53a6.12 6.12 0 0 0-6.12 6.119v50.53a6.12 6.12 0 0 0 6.12 6.12h50.53a6.12 6.12 0 0 0 6.12-6.12v-50.53a6.12 6.12 0 0 0-6.12-6.119zm-6.12 50.53H164.3v-38.29h38.29zm94.45-149.55h-50.4a6.12 6.12 0 0 0-6.12 6.12v50.53c0 3.39 2.74 6.12 6.12 6.12h50.4c3.39 0 6.13-2.73 6.13-6.12v-50.53c0-3.38-2.74-6.12-6.13-6.12zm-6.11 50.53h-38.17v-38.29h38.17zm6.11 48.49h-50.4a6.12 6.12 0 0 0-6.12 6.119v50.53a6.12 6.12 0 0 0 6.12 6.12h50.4c3.39 0 6.13-2.74 6.13-6.12v-50.53a6.122 6.122 0 0 0-6.13-6.119zm-6.11 50.53h-38.17v-38.29h38.17zm122.29 38.16a6.12 6.12 0 1 0 0 12.24h.12c3.391 0 6.07-2.74 6.07-6.12s-2.81-6.12-6.19-6.12zm.12-71.77a6.11 6.11 0 0 0-6.109 6.12v49.689a6.11 6.11 0 0 0 6.109 6.12c3.391 0 6.12-2.74 6.12-6.12V329.69c0-3.38-2.73-6.12-6.12-6.12zm0 0a6.11 6.11 0 0 0-6.109 6.12v49.689a6.11 6.11 0 0 0 6.109 6.12c3.391 0 6.12-2.74 6.12-6.12V329.69c0-3.38-2.73-6.12-6.12-6.12zm-.12 71.77a6.12 6.12 0 1 0 0 12.24h.12c3.391 0 6.07-2.74 6.07-6.12s-2.81-6.12-6.19-6.12zm0 0a6.12 6.12 0 1 0 0 12.24h.12c3.391 0 6.07-2.74 6.07-6.12s-2.81-6.12-6.19-6.12zm.12-71.77a6.11 6.11 0 0 0-6.109 6.12v49.689a6.11 6.11 0 0 0 6.109 6.12c3.391 0 6.12-2.74 6.12-6.12V329.69c0-3.38-2.73-6.12-6.12-6.12zm0 0a6.11 6.11 0 0 0-6.109 6.12v49.689a6.11 6.11 0 0 0 6.109 6.12c3.391 0 6.12-2.74 6.12-6.12V329.69c0-3.38-2.73-6.12-6.12-6.12zm-.12 71.77a6.12 6.12 0 1 0 0 12.24h.12c3.391 0 6.07-2.74 6.07-6.12s-2.81-6.12-6.19-6.12zm0 0a6.12 6.12 0 1 0 0 12.24h.12c3.391 0 6.07-2.74 6.07-6.12s-2.81-6.12-6.19-6.12zm.12-71.77a6.11 6.11 0 0 0-6.109 6.12v49.689a6.11 6.11 0 0 0 6.109 6.12c3.391 0 6.12-2.74 6.12-6.12V329.69c0-3.38-2.73-6.12-6.12-6.12zm0 0a6.11 6.11 0 0 0-6.109 6.12v49.689a6.11 6.11 0 0 0 6.109 6.12c3.391 0 6.12-2.74 6.12-6.12V329.69c0-3.38-2.73-6.12-6.12-6.12zm-.12 71.77a6.12 6.12 0 1 0 0 12.24h.12c3.391 0 6.07-2.74 6.07-6.12s-2.81-6.12-6.19-6.12zm.12-103.81c-40.83 0-74.05 33.21-74.05 74.04 0 40.84 33.22 74.06 74.05 74.06s74.05-33.22 74.05-74.06c0-40.83-33.22-74.04-74.05-74.04zm6.12 135.55v-3.89a6.115 6.115 0 0 0-6.12-6.131c-3.38 0-6.109 2.74-6.109 6.131v3.89c-29.211-2.89-52.5-26.18-55.391-55.38h3.78c3.38 0 6.12-2.74 6.12-6.13 0-3.38-2.74-6.11-6.12-6.11h-3.78c2.891-29.21 26.18-52.5 55.391-55.39v4.38a6.11 6.11 0 0 0 6.109 6.12c3.391 0 6.12-2.74 6.12-6.12v-4.38c29.21 2.89 52.5 26.18 55.39 55.39h-4.369c-3.391 0-6.131 2.73-6.131 6.11 0 3.39 2.74 6.13 6.131 6.13h4.369c-2.89 29.2-26.18 52.49-55.39 55.38zm-6.12-103.51a6.11 6.11 0 0 0-6.109 6.12v49.689a6.11 6.11 0 0 0 6.109 6.12c3.391 0 6.12-2.74 6.12-6.12V329.69c0-3.38-2.73-6.12-6.12-6.12zm-.12 71.77a6.12 6.12 0 1 0 0 12.24h.12c3.391 0 6.07-2.74 6.07-6.12s-2.81-6.12-6.19-6.12zm0 0a6.12 6.12 0 1 0 0 12.24h.12c3.391 0 6.07-2.74 6.07-6.12s-2.81-6.12-6.19-6.12zm.12-71.77a6.11 6.11 0 0 0-6.109 6.12v49.689a6.11 6.11 0 0 0 6.109 6.12c3.391 0 6.12-2.74 6.12-6.12V329.69c0-3.38-2.73-6.12-6.12-6.12zm0 0a6.11 6.11 0 0 0-6.109 6.12v49.689a6.11 6.11 0 0 0 6.109 6.12c3.391 0 6.12-2.74 6.12-6.12V329.69c0-3.38-2.73-6.12-6.12-6.12zm-.12 71.77a6.12 6.12 0 1 0 0 12.24h.12c3.391 0 6.07-2.74 6.07-6.12s-2.81-6.12-6.19-6.12zm0 0a6.12 6.12 0 1 0 0 12.24h.12c3.391 0 6.07-2.74 6.07-6.12s-2.81-6.12-6.19-6.12zm.12-71.77a6.11 6.11 0 0 0-6.109 6.12v49.689a6.11 6.11 0 0 0 6.109 6.12c3.391 0 6.12-2.74 6.12-6.12V329.69c0-3.38-2.73-6.12-6.12-6.12zm0 0a6.11 6.11 0 0 0-6.109 6.12v49.689a6.11 6.11 0 0 0 6.109 6.12c3.391 0 6.12-2.74 6.12-6.12V329.69c0-3.38-2.73-6.12-6.12-6.12zm-.12 71.77a6.12 6.12 0 1 0 0 12.24h.12c3.391 0 6.07-2.74 6.07-6.12s-2.81-6.12-6.19-6.12zm0 0a6.12 6.12 0 1 0 0 12.24h.12c3.391 0 6.07-2.74 6.07-6.12s-2.81-6.12-6.19-6.12zm.12-71.77a6.11 6.11 0 0 0-6.109 6.12v49.689a6.11 6.11 0 0 0 6.109 6.12c3.391 0 6.12-2.74 6.12-6.12V329.69c0-3.38-2.73-6.12-6.12-6.12zm0 0a6.11 6.11 0 0 0-6.109 6.12v49.689a6.11 6.11 0 0 0 6.109 6.12c3.391 0 6.12-2.74 6.12-6.12V329.69c0-3.38-2.73-6.12-6.12-6.12zm-.12 71.77a6.12 6.12 0 1 0 0 12.24h.12c3.391 0 6.07-2.74 6.07-6.12s-2.81-6.12-6.19-6.12zm0 0a6.12 6.12 0 1 0 0 12.24h.12c3.391 0 6.07-2.74 6.07-6.12s-2.81-6.12-6.19-6.12zm.12-71.77a6.11 6.11 0 0 0-6.109 6.12v49.689a6.11 6.11 0 0 0 6.109 6.12c3.391 0 6.12-2.74 6.12-6.12V329.69c0-3.38-2.73-6.12-6.12-6.12zm0 0a6.11 6.11 0 0 0-6.109 6.12v49.689a6.11 6.11 0 0 0 6.109 6.12c3.391 0 6.12-2.74 6.12-6.12V329.69c0-3.38-2.73-6.12-6.12-6.12zm-.12 71.77a6.12 6.12 0 1 0 0 12.24h.12c3.391 0 6.07-2.74 6.07-6.12s-2.81-6.12-6.19-6.12zm0 0a6.12 6.12 0 1 0 0 12.24h.12c3.391 0 6.07-2.74 6.07-6.12s-2.81-6.12-6.19-6.12zm.12-71.77a6.11 6.11 0 0 0-6.109 6.12v49.689a6.11 6.11 0 0 0 6.109 6.12c3.391 0 6.12-2.74 6.12-6.12V329.69c0-3.38-2.73-6.12-6.12-6.12zm0 0a6.11 6.11 0 0 0-6.109 6.12v49.689a6.11 6.11 0 0 0 6.109 6.12c3.391 0 6.12-2.74 6.12-6.12V329.69c0-3.38-2.73-6.12-6.12-6.12zm-.12 71.77a6.12 6.12 0 1 0 0 12.24h.12c3.391 0 6.07-2.74 6.07-6.12s-2.81-6.12-6.19-6.12zm.12-103.81c-40.83 0-74.05 33.21-74.05 74.04 0 40.84 33.22 74.06 74.05 74.06s74.05-33.22 74.05-74.06c0-40.83-33.22-74.04-74.05-74.04zm6.12 135.55v-3.89a6.115 6.115 0 0 0-6.12-6.131c-3.38 0-6.109 2.74-6.109 6.131v3.89c-29.211-2.89-52.5-26.18-55.391-55.38h3.78c3.38 0 6.12-2.74 6.12-6.13 0-3.38-2.74-6.11-6.12-6.11h-3.78c2.891-29.21 26.18-52.5 55.391-55.39v4.38a6.11 6.11 0 0 0 6.109 6.12c3.391 0 6.12-2.74 6.12-6.12v-4.38c29.21 2.89 52.5 26.18 55.39 55.39h-4.369c-3.391 0-6.131 2.73-6.131 6.11 0 3.39 2.74 6.13 6.131 6.13h4.369c-2.89 29.2-26.18 52.49-55.39 55.38zm-6.12-103.51a6.11 6.11 0 0 0-6.109 6.12v49.689a6.11 6.11 0 0 0 6.109 6.12c3.391 0 6.12-2.74 6.12-6.12V329.69c0-3.38-2.73-6.12-6.12-6.12zm-.12 71.77a6.12 6.12 0 1 0 0 12.24h.12c3.391 0 6.07-2.74 6.07-6.12s-2.81-6.12-6.19-6.12zm0 0a6.12 6.12 0 1 0 0 12.24h.12c3.391 0 6.07-2.74 6.07-6.12s-2.81-6.12-6.19-6.12zm.12-71.77a6.11 6.11 0 0 0-6.109 6.12v49.689a6.11 6.11 0 0 0 6.109 6.12c3.391 0 6.12-2.74 6.12-6.12V329.69c0-3.38-2.73-6.12-6.12-6.12zm0 0a6.11 6.11 0 0 0-6.109 6.12v49.689a6.11 6.11 0 0 0 6.109 6.12c3.391 0 6.12-2.74 6.12-6.12V329.69c0-3.38-2.73-6.12-6.12-6.12zm-.12 71.77a6.12 6.12 0 1 0 0 12.24h.12c3.391 0 6.07-2.74 6.07-6.12s-2.81-6.12-6.19-6.12zm0 0a6.12 6.12 0 1 0 0 12.24h.12c3.391 0 6.07-2.74 6.07-6.12s-2.81-6.12-6.19-6.12zm.12-71.77a6.11 6.11 0 0 0-6.109 6.12v49.689a6.11 6.11 0 0 0 6.109 6.12c3.391 0 6.12-2.74 6.12-6.12V329.69c0-3.38-2.73-6.12-6.12-6.12zm0 0a6.11 6.11 0 0 0-6.109 6.12v49.689a6.11 6.11 0 0 0 6.109 6.12c3.391 0 6.12-2.74 6.12-6.12V329.69c0-3.38-2.73-6.12-6.12-6.12zm-.12 71.77a6.12 6.12 0 1 0 0 12.24h.12c3.391 0 6.07-2.74 6.07-6.12s-2.81-6.12-6.19-6.12zm0 0a6.12 6.12 0 1 0 0 12.24h.12c3.391 0 6.07-2.74 6.07-6.12s-2.81-6.12-6.19-6.12zm.12-71.77a6.11 6.11 0 0 0-6.109 6.12v49.689a6.11 6.11 0 0 0 6.109 6.12c3.391 0 6.12-2.74 6.12-6.12V329.69c0-3.38-2.73-6.12-6.12-6.12z" opacity="1" data-original="#26a6fe" class=""></path><g fill="#8ac9fe"><path d="M18.24 402.9c0 10.649 8.67 19.33 19.33 19.33h39.95l-59.28-59.28zM394.5 244.48h37.57v6H394.5zM344.34 295.13a3.138 3.138 0 0 0 0 4.43l2.04 2c1.43-1.51 2.91-2.97 4.44-4.369l-2.051-2.061a3.137 3.137 0 0 0-4.429 0zM480.23 301.56l2-2a3.157 3.157 0 0 0 0-4.43 3.194 3.194 0 0 0-2.221-.91c-.479 0-1.42.13-2.21.91l-2.03 2.04c1.531 1.41 3.011 2.88 4.461 4.39zM413.34 285.16c-44.399 0-80.53 36.08-80.53 80.41 0 44.35 36.131 80.42 80.53 80.42 44.34 0 80.42-36.07 80.42-80.42 0-44.33-36.08-80.41-80.42-80.41zm0 154.47c-40.83 0-74.05-33.22-74.05-74.06 0-40.83 33.22-74.04 74.05-74.04s74.05 33.21 74.05 74.04c0 40.84-33.22 74.06-74.05 74.06zM436.99 122.3c0-10.66-8.62-19.33-19.21-19.33h-42.49v16.93c0 3.38-2.73 6.12-6.11 6.12h-23.05a6.12 6.12 0 0 1-6.12-6.12v-16.93H115.22v16.93a6.12 6.12 0 0 1-6.12 6.12H86.17a6.12 6.12 0 0 1-6.12-6.12v-16.93H37.57c-10.66 0-19.33 8.67-19.33 19.33v38.05h418.75z" fill="#8ac9fe" opacity="1" data-original="#8ac9fe" class=""></path></g></g></svg>
